<?xml version="1.0" ?><!-- Uploaded to: SVG Repo, www.svgrepo.com, Generator: SVG Repo Mixer Tools -->
<svg fill="#000000" width="800px" height="800px" viewBox="0 0 64 64" data-name="Layer 1" id="Layer_1" xmlns="http://www.w3.org/2000/svg"><title/><path d="M36,22.74V21.10193a3.09593,3.09593,0,0,0-1.99084-2.88806,3,3,0,1,0-4.01832,0A3.09593,3.09593,0,0,0,28,21.10193V22.74a6.97916,6.97916,0,0,0,8,0Z"/><path d="M34.00916,50.21387a3,3,0,1,0-4.01832,0A3.09593,3.09593,0,0,0,28,53.10193V54.74a6.97916,6.97916,0,0,0,8,0V53.10193A3.09593,3.09593,0,0,0,34.00916,50.21387Z"/><path d="M20,38.74V37.10193a3.09593,3.09593,0,0,0-1.99084-2.88806,3,3,0,1,0-4.01832,0A3.09593,3.09593,0,0,0,12,37.10193V38.74a6.97916,6.97916,0,0,0,8,0Z"/><path d="M52,38.74V37.10193a3.09593,3.09593,0,0,0-1.99084-2.88806,3,3,0,1,0-4.01832,0A3.09593,3.09593,0,0,0,44,37.10193V38.74a6.97916,6.97916,0,0,0,8,0Z"/><path d="M32,63A30,30,0,1,0,2,33,30,30,0,0,0,32,63Zm0-6a9,9,0,1,1,9-9A9,9,0,0,1,32,57ZM48,23a9,9,0,1,1-9,9A9,9,0,0,1,48,23ZM32,7a9,9,0,1,1-9,9A9,9,0,0,1,32,7ZM7,32a9,9,0,1,1,9,9A9,9,0,0,1,7,32Z"/></svg>