<?xml version="1.0" encoding="utf-8"?><!-- Uploaded to: SVG Repo, www.svgrepo.com, Generator: SVG Repo Mixer Tools -->
<svg width="800px" height="800px" viewBox="0 0 16 16" xmlns="http://www.w3.org/2000/svg">
  <path fill="#000000" d="M8,0 C12.4183,0 16,3.58172 16,8 C16,8.15958 15.9953,8.31807 15.9861,8.47533 C15.9328,9.38596 15.1095,10.0039 14.1974,10.0039 L11.0106,10.0039 C9.22875,10.0039 8.33642,12.1582 9.59635,13.4181 C10.4823,14.304 10.198,15.7959 8.95388,15.9437 C8.6411,15.9809 8.32278,16 8,16 C3.58172,16 0,12.4183 0,8 C0,3.58172 3.58172,0 8,0 Z M8,2 C4.68629,2 2,4.68629 2,8 C2,11.1538 4.4333,13.7393 7.52492,13.9815 C6.059,11.4506 7.82321,8.00391 11.0106,8.00391 L14,8.00391 C14,4.68629 11.3137,2 8,2 Z M5,8 C5.55228,8 6,8.44771 6,9 C6,9.55228 5.55228,10 5,10 C4.44772,10 4,9.55228 4,9 C4,8.44771 4.44772,8 5,8 Z M6,5 C6.55228,5 7,5.44772 7,6 C7,6.55228 6.55228,7 6,7 C5.44772,7 5,6.55228 5,6 C5,5.44772 5.44772,5 6,5 Z M9,4 C9.55228,4 10,4.44772 10,5 C10,5.55228 9.55228,6 9,6 C8.44771,6 8,5.55228 8,5 C8,4.44772 8.44771,4 9,4 Z"/>
</svg>