<?xml version="1.0" encoding="iso-8859-1"?>
<!-- Uploaded to: SVG Repo, www.svgrepo.com, Generator: SVG Repo Mixer Tools -->
<svg fill="#000000" height="800px" width="800px" version="1.1" id="Layer_1" xmlns="http://www.w3.org/2000/svg" xmlns:xlink="http://www.w3.org/1999/xlink" 
	 viewBox="0 0 512 512" xml:space="preserve">
<g>
	<g>
		<g>
			<path d="M357.446,365.671c-5.892,0-10.667,4.776-10.667,10.667v39.663c0,5.892,4.776,10.667,10.667,10.667
				c5.891,0,10.667-4.776,10.667-10.667v-39.663C368.113,370.447,363.337,365.671,357.446,365.671z"/>
			<path d="M357.44,356.36c5.89,0,10.667-4.776,10.667-10.667v-0.254c0-5.892-4.777-10.667-10.667-10.667
				c-5.891,0-10.667,4.776-10.667,10.667v0.254C346.773,351.585,351.55,356.36,357.44,356.36z"/>
			<path d="M511.972,175.896c-0.391-7.467-4.688-13.533-10.715-21.284l-42.952-55.237l-19.829-25.51
				c-16.592-21.421-24.164-31.199-56.791-31.199h-29.064c-3.146,0-6.132,1.389-8.158,3.797
				C322.571,72.46,290.328,87.37,256.001,87.37c-34.329,0-66.572-14.91-88.464-40.907c-2.027-2.407-5.014-3.797-8.16-3.797h-29.062
				c-32.629,0-40.202,9.778-56.793,31.201l-62.781,80.745c-6.027,7.752-10.324,13.816-10.713,21.284
				c-0.485,9.299,5.521,16.437,11.188,22.397l44.374,46.68c8.646,9.122,14.357,15.148,23.112,15.148
				c8.134,0,14.348-5.613,21.055-12.395l3.063-3.096l-1.748,187.105c-0.14,15.069-0.225,24.165,6.376,30.825
				c6.709,6.773,17.022,6.773,30.076,6.773h236.951c13.056,0,23.368,0,30.076-6.773c6.601-6.661,6.516-15.757,6.376-30.825
				l-1.746-187.104l3.062,3.096c6.708,6.781,12.922,12.395,21.054,12.395c8.755,0,14.466-6.025,23.11-15.144l44.378-46.683
				C506.451,192.333,512.458,185.194,511.972,175.896z M485.322,183.593l-44.4,46.707c-2.771,2.924-5.83,6.151-7.747,7.788
				c-1.087-0.851-2.867-2.433-5.765-5.365l-21.557-21.796c-3.053-3.088-7.674-4.017-11.686-2.348
				c-4.01,1.669-6.606,5.604-6.566,9.947l1.993,213.407c0.052,5.671,0.116,12.569-0.445,15.401
				c-2.999,0.664-10.458,0.664-14.675,0.664H137.523c-4.217,0-11.675,0-14.674-0.664c-0.56-2.832-0.497-9.731-0.444-15.401
				l1.992-213.408c0.041-4.344-2.556-8.278-6.567-9.947c-4.012-1.67-8.632-0.741-11.686,2.348l-21.556,21.795
				c-2.899,2.93-4.679,4.513-5.766,5.365c-1.916-1.638-4.975-4.866-7.749-7.791L26.677,183.59c-4.08-4.291-5.067-6.113-5.304-6.701
				c0.574-1.934,4.642-7.168,6.209-9.183l60.353-77.617l2.451-3.16c15.394-19.874,17.759-22.929,39.927-22.929h24.221
				c25.834,28.472,62.527,44.703,101.465,44.703c38.936,0,75.629-16.23,101.462-44.703h24.222c22.166,0,24.531,3.054,39.924,22.928
				l62.805,80.779c1.568,2.016,5.638,7.249,6.211,9.183C490.389,177.48,489.403,179.302,485.322,183.593z"/>
			<path d="M140.673,85.436c-0.019,0-0.037,0-0.057,0c-21.061,0.11-26.495,5.863-42.09,25.801
				c-3.629,4.641-2.811,11.345,1.829,14.975c1.952,1.525,4.267,2.266,6.565,2.266c3.169,0,6.307-1.406,8.411-4.095
				c13.726-17.551,13.944-17.552,25.397-17.611c5.891-0.031,10.643-4.831,10.612-10.723
				C151.309,90.175,146.54,85.436,140.673,85.436z"/>
			<path d="M94.757,133.637c-4.611-3.667-11.322-2.9-14.989,1.711l-0.311,0.4c-3.622,4.647-2.791,11.35,1.856,14.971
				c1.948,1.519,4.256,2.254,6.551,2.254c3.176-0.001,6.317-1.412,8.421-4.11l0.191-0.245
				C100.135,144.007,99.367,137.301,94.757,133.637z"/>
			<path d="M323.113,192.22l-36.89-10.616l-21.378-31.713c-1.981-2.939-5.293-4.702-8.838-4.704c-0.002,0-0.004,0-0.006,0
				c-3.542,0-6.855,1.758-8.838,4.694l-21.498,31.802L188.9,192.215c-3.407,0.977-6.108,3.581-7.206,6.952
				c-1.097,3.371-0.448,7.066,1.731,9.862l23.602,30.273l-1.343,38.221c-0.125,3.543,1.519,6.916,4.384,9.001
				c1.849,1.345,4.051,2.042,6.277,2.042c1.224,0,2.455-0.21,3.638-0.64l36.083-13.094l35.937,13.089
				c3.33,1.213,7.046,0.691,9.915-1.389c2.868-2.082,4.517-5.453,4.396-8.996l-1.302-38.364l23.552-30.132
				c2.184-2.793,2.836-6.488,1.743-9.86C329.216,195.809,326.519,193.2,323.113,192.22z M285.817,229.089
				c-1.544,1.975-2.341,4.428-2.257,6.932l0.898,26.446l-24.733-9.009c-2.355-0.859-4.935-0.86-7.289-0.004l-24.874,9.027
				l0.924-26.305c0.089-2.504-0.707-4.958-2.248-6.934l-16.271-20.869l25.302-7.25c2.409-0.69,4.497-2.205,5.9-4.281l14.82-21.923
				l14.713,21.825c1.401,2.077,3.488,3.596,5.894,4.288l25.431,7.319L285.817,229.089z"/>
		</g>
	</g>
</g>
</svg>