<?xml version="1.0" encoding="utf-8"?>
<!-- Uploaded to: SVG Repo, www.svgrepo.com, Generator: SVG Repo Mixer Tools -->
<svg fill="#000000" width="800px" height="800px" viewBox="0 0 32 32" version="1.1" xmlns="http://www.w3.org/2000/svg">
<title>signal-stream</title>
<path d="M16 11.75c-2.347 0-4.25 1.903-4.25 4.25s1.903 4.25 4.25 4.25c2.347 0 4.25-1.903 4.25-4.25v0c-0.003-2.346-1.904-4.247-4.25-4.25h-0zM16 17.75c-0.966 0-1.75-0.784-1.75-1.75s0.784-1.75 1.75-1.75c0.966 0 1.75 0.784 1.75 1.75v0c-0.001 0.966-0.784 1.749-1.75 1.75h-0zM3.25 16c0.211-3.416 1.61-6.471 3.784-8.789l-0.007 0.008c0.223-0.226 0.361-0.536 0.361-0.879 0-0.69-0.56-1.25-1.25-1.25-0.344 0-0.655 0.139-0.881 0.363l0-0c-2.629 2.757-4.31 6.438-4.506 10.509l-0.001 0.038c0.198 4.109 1.879 7.79 4.514 10.553l-0.006-0.006c0.226 0.228 0.54 0.369 0.886 0.369 0.69 0 1.249-0.559 1.249-1.249 0-0.346-0.141-0.659-0.368-0.885l-0-0c-2.173-2.307-3.573-5.363-3.774-8.743l-0.002-0.038zM9.363 16c0.149-2.342 1.109-4.436 2.6-6.026l-0.005 0.005c0.224-0.226 0.363-0.537 0.363-0.88 0-0.69-0.56-1.25-1.25-1.25-0.345 0-0.657 0.139-0.883 0.365l0-0c-1.94 2.035-3.179 4.753-3.323 7.759l-0.001 0.028c0.145 3.032 1.384 5.75 3.329 7.79l-0.005-0.005c0.226 0.228 0.54 0.369 0.886 0.369 0.69 0 1.249-0.559 1.249-1.249 0-0.346-0.141-0.659-0.368-0.885l-0-0c-1.49-1.581-2.451-3.676-2.591-5.993l-0.001-0.027zM26.744 5.453c-0.226-0.227-0.54-0.368-0.886-0.368-0.691 0-1.251 0.56-1.251 1.251 0 0.345 0.139 0.657 0.365 0.883l-0-0c2.168 2.31 3.567 5.365 3.775 8.741l0.002 0.040c-0.21 3.417-1.609 6.471-3.784 8.789l0.007-0.008c-0.224 0.226-0.362 0.537-0.362 0.88 0 0.691 0.56 1.251 1.251 1.251 0.345 0 0.657-0.14 0.883-0.365l-0 0c2.628-2.757 4.308-6.439 4.504-10.509l0.001-0.038c-0.198-4.108-1.878-7.79-4.512-10.553l0.006 0.007zM21.811 8.214c-0.226-0.224-0.537-0.363-0.881-0.363-0.69 0-1.25 0.56-1.25 1.25 0 0.343 0.138 0.653 0.361 0.879l-0-0c1.486 1.585 2.447 3.678 2.594 5.992l0.001 0.028c-0.151 2.343-1.111 4.436-2.601 6.027l0.005-0.005c-0.224 0.226-0.362 0.537-0.362 0.88 0 0.691 0.56 1.251 1.251 1.251 0.345 0 0.657-0.14 0.883-0.365l-0 0c1.939-2.036 3.178-4.754 3.323-7.759l0.001-0.028c-0.145-3.033-1.385-5.751-3.331-7.791l0.005 0.005z"></path>
</svg>