<?xml version="1.0" encoding="utf-8"?>

<!DOCTYPE svg PUBLIC "-//W3C//DTD SVG 1.1//EN" "http://www.w3.org/Graphics/SVG/1.1/DTD/svg11.dtd">
<!-- Uploaded to: SVG Repo, www.svgrepo.com, Generator: SVG Repo Mixer Tools -->
<svg height="800px" width="800px" version="1.1" id="_x32_" xmlns="http://www.w3.org/2000/svg" xmlns:xlink="http://www.w3.org/1999/xlink" 
	 viewBox="0 0 512 512"  xml:space="preserve">
<style type="text/css">
	.st0{fill:#000000;}
</style>
<g>
	<path class="st0" d="M378.413,0H208.297h-13.182L185.8,9.314L57.02,138.102l-9.314,9.314v13.176v265.514
		c0,47.36,38.528,85.895,85.896,85.895h244.811c47.353,0,85.881-38.535,85.881-85.895V85.896C464.294,38.528,425.766,0,378.413,0z
		 M432.497,426.105c0,29.877-24.214,54.091-54.084,54.091H133.602c-29.884,0-54.098-24.214-54.098-54.091V160.591h83.716
		c24.885,0,45.077-20.178,45.077-45.07V31.804h170.116c29.87,0,54.084,24.214,54.084,54.092V426.105z"/>
	<path class="st0" d="M169.574,268.949c5.837,0,9.104,2.171,12.499,6.786c2.709,3.805,5.432,5.167,8.825,5.167
		c5.028,0,9.105-3.673,9.105-8.965c0-2.171-0.684-4.078-1.774-5.977c-4.622-8.288-14.802-14.669-28.655-14.669
		c-16.171,0-28.124,7.603-33.012,22.685c-1.899,6.11-2.57,10.865-2.57,24.989c0,14.125,0.67,18.881,2.57,24.99
		c4.888,15.081,16.841,22.685,33.012,22.685c13.853,0,24.033-6.382,28.655-14.67c1.09-1.899,1.774-3.805,1.774-5.976
		c0-5.3-4.078-8.965-9.105-8.965c-3.393,0-6.116,1.361-8.825,5.16c-3.394,4.622-6.662,6.794-12.499,6.794
		c-7.471,0-11.814-3.938-13.853-10.187c-1.089-3.393-1.494-6.654-1.494-19.83c0-13.175,0.406-16.436,1.494-19.829
		C157.76,272.887,162.103,268.949,169.574,268.949z"/>
	<path class="st0" d="M255.149,289.595l-4.888-0.684c-10.725-1.494-14.398-5.02-14.398-10.187c0-5.837,4.343-9.915,12.498-9.915
		c5.698,0,11.409,1.634,15.892,3.805c1.899,0.95,3.938,1.494,5.837,1.494c4.888,0,8.7-3.666,8.7-8.693
		c0-3.261-1.494-5.977-4.762-8.016c-5.432-3.394-15.612-6.11-25.806-6.11c-19.97,0-32.733,11.269-32.733,28.25
		c0,16.304,10.32,25.13,29.2,27.713l4.901,0.677c10.99,1.494,14.258,4.888,14.258,10.32c0,6.389-5.306,10.872-15.082,10.872
		c-6.787,0-12.219-1.767-19.83-5.977c-1.634-0.956-3.672-1.634-5.837-1.634c-5.166,0-8.965,3.938-8.965,8.832
		c0,3.254,1.634,6.382,4.748,8.42c6.116,3.799,16.031,7.876,29.074,7.876c24.032,0,36.266-12.358,36.266-29.067
		C284.223,300.865,274.307,292.311,255.149,289.595z"/>
	<path class="st0" d="M338.697,289.595l-4.888-0.684c-10.738-1.494-14.398-5.02-14.398-10.187c0-5.837,4.344-9.915,12.484-9.915
		c5.712,0,11.423,1.634,15.892,3.805c1.913,0.95,3.952,1.494,5.851,1.494c4.887,0,8.686-3.666,8.686-8.693
		c0-3.261-1.494-5.977-4.748-8.016c-5.432-3.394-15.626-6.11-25.806-6.11c-19.969,0-32.733,11.269-32.733,28.25
		c0,16.304,10.32,25.13,29.2,27.713l4.888,0.677c11.004,1.494,14.258,4.888,14.258,10.32c0,6.389-5.292,10.872-15.068,10.872
		c-6.8,0-12.232-1.767-19.829-5.977c-1.634-0.956-3.673-1.634-5.851-1.634c-5.153,0-8.965,3.938-8.965,8.832
		c0,3.254,1.634,6.382,4.762,8.42c6.117,3.799,16.032,7.876,29.06,7.876c24.047,0,36.266-12.358,36.266-29.067
		C367.758,300.865,357.843,292.311,338.697,289.595z"/>
</g>
</svg>