<?xml version="1.0" encoding="iso-8859-1"?>
<!-- Uploaded to: SVG Repo, www.svgrepo.com, Generator: SVG Repo Mixer Tools -->
<svg fill="#000000" height="800px" width="800px" version="1.1" id="Layer_1" xmlns="http://www.w3.org/2000/svg" xmlns:xlink="http://www.w3.org/1999/xlink" 
	 viewBox="0 0 512.005 512.005" xml:space="preserve">
<g>
	<g>
		<path d="M437.333,213.336c5.888,0,10.667-4.779,10.667-10.667v-128c0-29.397-23.915-53.333-53.333-53.333H53.333
			C23.915,21.336,0,45.272,0,74.669v362.667c0,29.397,23.915,53.333,53.333,53.333h341.333c29.419,0,53.333-23.936,53.333-53.333
			v-64c0-5.888-4.779-10.667-10.667-10.667c-5.888,0-10.667,4.779-10.667,10.667v64c0,17.643-14.357,32-32,32H53.333
			c-17.643,0-32-14.357-32-32V128.003h405.333v74.667C426.667,208.557,431.445,213.336,437.333,213.336z M21.333,106.669v-32
			c0-17.643,14.357-32,32-32h341.333c17.643,0,32,14.357,32,32v32H21.333z"/>
	</g>
</g>
<g>
	<g>
		<circle cx="53.333" cy="74.669" r="10.667"/>
	</g>
</g>
<g>
	<g>
		<circle cx="96" cy="74.669" r="10.667"/>
	</g>
</g>
<g>
	<g>
		<circle cx="138.667" cy="74.669" r="10.667"/>
	</g>
</g>
<g>
	<g>
		<path d="M472.661,277.741l-3.157-0.533C450.795,274.157,448,269.293,448,266.669c0-4.245,8.512-10.667,21.355-10.667
			c12.629,0,20.949,5.995,21.355,10.304c0.576,5.888,6.016,10.411,11.648,9.6c5.845-0.555,10.155-5.76,9.6-11.627
			c-1.621-16.896-19.925-29.632-42.603-29.632c-23.936,0-42.688,14.059-42.688,32c0,16.704,13.248,27.328,39.424,31.595
			l1.707-10.517l1.408,11.051c17.728,2.923,21.461,7.36,21.461,10.56c0,4.245-8.512,10.667-21.355,10.667
			c-12.629,0-20.949-6.016-21.355-10.325c-0.576-5.867-5.803-10.219-11.648-9.6c-5.845,0.555-10.155,5.76-9.6,11.627
			c1.621,16.896,19.925,29.632,42.603,29.632c23.936,0,42.688-14.059,42.688-32C512,292.653,498.773,282.029,472.661,277.741z"/>
	</g>
</g>
<g>
	<g>
		<path d="M365.973,277.741l-3.157-0.533c-18.709-3.051-21.504-7.915-21.504-10.539c0-4.245,8.512-10.667,21.355-10.667
			c12.629,0,20.949,6.016,21.355,10.304c0.576,5.888,5.952,10.411,11.648,9.6c5.845-0.555,10.155-5.76,9.6-11.627
			c-1.621-16.896-19.925-29.632-42.603-29.632c-23.936,0-42.688,14.059-42.688,32c0,16.704,13.248,27.328,39.424,31.595
			l1.707-10.517l1.429,11.051c17.707,2.923,21.44,7.36,21.44,10.56c0,4.245-8.512,10.667-21.355,10.667
			c-12.629,0-20.949-6.016-21.355-10.325c-0.576-5.867-5.909-10.219-11.648-9.6c-5.845,0.555-10.155,5.76-9.6,11.627
			c1.621,16.896,19.925,29.632,42.603,29.632c23.936,0,42.688-14.059,42.688-32C405.312,292.653,392.085,282.029,365.973,277.741z"
			/>
	</g>
</g>
<g>
	<g>
		<path d="M288,298.669c-5.888,0-10.667,4.779-10.667,10.667s-4.8,10.667-10.667,10.667h-21.333
			c-5.867,0-10.667-4.779-10.667-10.667v-42.667c0-5.888,4.8-10.667,10.667-10.667h21.333c5.867,0,10.667,4.779,10.667,10.667
			s4.779,10.667,10.667,10.667s10.667-4.779,10.667-10.667c0-17.643-14.357-32-32-32h-21.333c-17.643,0-32,14.357-32,32v42.667
			c0,17.643,14.357,32,32,32h21.333c17.643,0,32-14.357,32-32C298.667,303.448,293.888,298.669,288,298.669z"/>
	</g>
</g>
</svg>