<?xml version="1.0" encoding="utf-8"?>
<!-- Generator: Adobe Illustrator 27.5.0, SVG Export Plug-In . SVG Version: 6.00 Build 0)  -->
<svg version="1.1" xmlns="http://www.w3.org/2000/svg" xmlns:xlink="http://www.w3.org/1999/xlink" x="0px" y="0px"
	 viewBox="0 0 500 500" style="enable-background:new 0 0 500 500;" xml:space="preserve">
<g id="BACKGROUND">
	<rect y="0" style="fill:#FFFFFF;" width="500" height="500"/>
</g>
<g id="OBJECTS">
	<g>
		<g>
			<g>
				
					<ellipse style="fill:#FFFFFF;stroke:#FFFFFF;stroke-width:6;stroke-miterlimit:10;" cx="316.215" cy="120.807" rx="39.707" ry="39.972"/>
				<path style="fill:#FFFFFF;stroke:#FFFFFF;stroke-width:6;stroke-miterlimit:10;" d="M412.027,86.703
					C409.905,76.099,398.443,69.788,388,74.702c-7.134,3.357-10.593,11.49-9.097,19.273c5.236,27.243-6.171,53.711-27.099,69.122
					c-3.569,2.629-7.888,4.033-12.31,4.039l-49.486,0.07c-7.697,0.011-14.933,3.416-20.126,9.135
					c-16.999,18.722-43.563,27.414-69.41,20.26c-8.139-2.253-17.031,1.197-20.6,8.897c-4.54,9.794,0.78,20.9,10.666,23.737
					c29.632,8.506,59.969,2.968,84.032-12.639c0.841-0.545,1.939,0.044,1.939,1.05v91.756v12.179v103.394
					c0,9.215,6.492,17.45,15.553,18.761c11.289,1.633,20.971-7.139,20.971-18.187V324.922c0-1.4,0.819-2.751,2.145-3.174
					c2.198-0.701,4.22,0.931,4.22,3.039V425.55c0,10.153,8.176,18.384,18.262,18.384h0c10.086,0,18.262-8.231,18.262-18.384V321.583
					v-12.179v-105.11c0-2.2,1.174-4.255,3.107-5.281C398.419,178.096,421.257,132.828,412.027,86.703z"/>
			</g>
			<ellipse cx="316.215" cy="120.807" rx="39.707" ry="39.972"/>
			<path d="M412.027,86.703C409.905,76.099,398.443,69.788,388,74.702c-7.134,3.357-10.593,11.49-9.097,19.273
				c5.236,27.243-6.171,53.711-27.099,69.122c-3.569,2.629-7.888,4.033-12.31,4.039l-49.486,0.07
				c-7.697,0.011-14.933,3.416-20.126,9.135c-16.999,18.722-43.563,27.414-69.41,20.26c-8.139-2.253-17.031,1.197-20.6,8.897
				c-4.54,9.794,0.78,20.9,10.666,23.737c29.632,8.506,59.969,2.968,84.032-12.639c0.841-0.545,1.939,0.044,1.939,1.05v91.756
				v12.179v103.394c0,9.215,6.492,17.45,15.553,18.761c11.289,1.633,20.971-7.139,20.971-18.187V324.922
				c0-1.4,0.819-2.751,2.145-3.174c2.198-0.701,4.22,0.931,4.22,3.039V425.55c0,10.153,8.176,18.384,18.262,18.384h0
				c10.086,0,18.262-8.231,18.262-18.384V321.583v-12.179v-105.11c0-2.2,1.174-4.255,3.107-5.281
				C398.419,178.096,421.257,132.828,412.027,86.703z"/>
		</g>
		<g>
			<g>
				
					<ellipse style="fill:none;stroke:#FFFFFF;stroke-width:6;stroke-miterlimit:10;" cx="188.087" cy="143.982" rx="36.859" ry="37.105"/>
				<path style="fill:none;stroke:#FFFFFF;stroke-width:6;stroke-miterlimit:10;" d="M271.139,286.113l-30.816-63.02L229.911,201.6
					c-3.971-8.198-12.239-13.399-21.299-13.399H187.35h-0.052l-7.582-0.158c-11.595-0.241-22.711-5.189-30.313-14.007
					c-10.992-12.751-16.637-30.038-14.086-47.989c1.092-7.687-3.518-15.276-11.026-17.053c-8.442-1.998-16.609,3.688-17.881,12.146
					c-5.459,36.307,11.627,70.892,40.662,89.345c2.692,1.711,4.06,4.909,3.361,8.036l-26.857,120.271
					c-3.244,7.452,2.178,15.804,10.26,15.804h15.485c1.053,0,1.906,0.859,1.906,1.919v69.767c0,9.089,6.814,17.026,15.824,17.613
					c9.873,0.644,18.081-7.228,18.081-17.028v-70.843c0-0.788,0.635-1.427,1.418-1.427h1.549c0.783,0,1.418,0.639,1.418,1.427
					v70.843c0,9.425,7.59,17.065,16.952,17.065h0c9.362,0,16.952-7.64,16.952-17.065v-70.351c0-1.06,0.853-1.919,1.906-1.919h15.485
					c8.082,0,13.505-8.353,10.26-15.804l-27.662-88.458c0.055-0.032,0.034-0.02,0.089-0.052
					c5.612,11.477,16.464,33.669,23.239,47.525c3.284,6.715,11.343,9.482,18.022,6.193l0.37-0.182
					C271.654,300.607,274.347,292.673,271.139,286.113z"/>
			</g>
			<g>
				<ellipse cx="188.087" cy="143.982" rx="36.859" ry="37.105"/>
				<path d="M271.139,286.113l-30.816-63.02L229.911,201.6c-3.971-8.198-12.239-13.399-21.299-13.399H187.35h-0.052l-7.582-0.158
					c-11.595-0.241-22.711-5.189-30.313-14.007c-10.992-12.751-16.637-30.038-14.086-47.989c1.092-7.687-3.518-15.276-11.026-17.053
					c-8.442-1.998-16.609,3.688-17.881,12.146c-5.459,36.307,11.627,70.892,40.662,89.345c2.692,1.711,4.06,4.909,3.361,8.036
					l-26.857,120.271c-3.244,7.452,2.178,15.804,10.26,15.804h15.485c1.053,0,1.906,0.859,1.906,1.919v69.767
					c0,9.089,6.814,17.026,15.824,17.613c9.873,0.644,18.081-7.228,18.081-17.028v-70.843c0-0.788,0.635-1.427,1.418-1.427h1.549
					c0.783,0,1.418,0.639,1.418,1.427v70.843c0,9.425,7.59,17.065,16.952,17.065h0c9.362,0,16.952-7.64,16.952-17.065v-70.351
					c0-1.06,0.853-1.919,1.906-1.919h15.485c8.082,0,13.505-8.353,10.26-15.804l-27.662-88.458c0.055-0.032,0.034-0.02,0.089-0.052
					c5.612,11.477,16.464,33.669,23.239,47.525c3.284,6.715,11.343,9.482,18.022,6.193l0.37-0.182
					C271.654,300.607,274.347,292.673,271.139,286.113z"/>
			</g>
		</g>
		<g>
			<g>
				<path style="fill:none;stroke:#FFFFFF;stroke-width:6;stroke-miterlimit:10;" d="M243.183,287.497
					c13.998,2.133,27.062-7.561,29.181-21.652c2.118-14.091-7.511-27.243-21.509-29.375c-13.997-2.133-27.062,7.561-29.181,21.652
					C219.556,272.212,229.186,285.364,243.183,287.497z"/>
				<path style="fill:none;stroke:#FFFFFF;stroke-width:6;stroke-miterlimit:10;" d="M302.18,247.511
					c-5.622-0.856-10.868,3.036-11.719,8.695c-3.468,23.064-24.928,38.988-47.84,35.497c-22.911-3.491-38.729-25.094-35.262-48.158
					c0.851-5.659-3.016-10.94-8.638-11.797c-5.621-0.857-10.868,3.036-11.719,8.695c-4.046,26.914,9.536,52.49,32.015,64.814
					l-16.368,75.89c-1.453,4.55,1.918,9.206,6.666,9.206h10.212v41.202c0,6.198,4.501,11.734,10.631,12.323
					c7.032,0.675,12.948-4.873,12.948-11.812v-39.724c0-1.098,0.885-1.989,1.976-1.989h0.158c1.091,0,1.976,0.891,1.976,1.989
					v39.724c0,6.555,5.278,11.868,11.789,11.868c6.511,0,11.789-5.313,11.789-11.868v-41.713h10.07c4.748,0,8.119-4.656,6.666-9.206
					l-15.55-72.71c19.998-8.023,35.388-26.201,38.836-49.13C311.669,253.649,307.802,248.368,302.18,247.511z"/>
			</g>
			<g>
				<path d="M243.183,287.497c13.998,2.133,27.062-7.561,29.181-21.652c2.118-14.091-7.511-27.243-21.509-29.375
					c-13.997-2.133-27.062,7.561-29.181,21.652C219.556,272.212,229.186,285.364,243.183,287.497z"/>
				<path d="M302.18,247.511c-5.622-0.856-10.868,3.036-11.719,8.695c-3.468,23.064-24.928,38.988-47.84,35.497
					c-22.911-3.491-38.729-25.094-35.262-48.158c0.851-5.659-3.016-10.94-8.638-11.797c-5.621-0.857-10.868,3.036-11.719,8.695
					c-4.046,26.914,9.536,52.49,32.015,64.814l-16.368,75.89c-1.453,4.55,1.918,9.206,6.666,9.206h10.212v41.202
					c0,6.198,4.501,11.734,10.631,12.323c7.032,0.675,12.948-4.873,12.948-11.812v-39.724c0-1.098,0.885-1.989,1.976-1.989h0.158
					c1.091,0,1.976,0.891,1.976,1.989v39.724c0,6.555,5.278,11.868,11.789,11.868c6.511,0,11.789-5.313,11.789-11.868v-41.713h10.07
					c4.748,0,8.119-4.656,6.666-9.206l-15.55-72.71c19.998-8.023,35.388-26.201,38.836-49.13
					C311.669,253.649,307.802,248.368,302.18,247.511z"/>
			</g>
		</g>
		<g>
			<g>
				
					<ellipse style="fill:none;stroke:#FFFFFF;stroke-width:6;stroke-miterlimit:10;" cx="387.527" cy="212.887" rx="32.559" ry="32.776"/>
				<path style="fill:none;stroke:#FFFFFF;stroke-width:6;stroke-miterlimit:10;" d="M457.689,196.468
					c-7.12-1.214-13.869,3.612-15.075,10.78c-4.914,29.213-32.521,48.955-61.54,44.008c-29.02-4.947-48.631-32.738-43.717-61.95
					c1.206-7.168-3.589-13.961-10.709-15.175c-7.12-1.214-13.869,3.612-15.075,10.78c-5.862,34.848,11.713,68.319,41.14,84.069
					c-0.281,1.317-0.436,2.681-0.436,4.083v84.618v9.987v61.192c0,8.325,6.704,15.074,14.975,15.074h0
					c8.27,0,14.974-6.749,14.974-15.074v-58.565c0-1.451,1.169-2.627,2.61-2.627c1.441,0,2.61,1.176,2.61,2.627v58.565
					c0,8.634,7.21,15.572,15.9,15.046c7.752-0.469,14.049-7.818,14.049-15.636l0-60.602v-9.987v-84.291
					c25.859-9.613,46.08-32.478,51.003-61.746C469.603,204.476,464.809,197.682,457.689,196.468z"/>
			</g>
			<g>
				<ellipse cx="387.527" cy="212.887" rx="32.559" ry="32.776"/>
				<path d="M457.689,196.468c-7.12-1.214-13.869,3.612-15.075,10.78c-4.914,29.213-32.521,48.955-61.54,44.008
					c-29.02-4.947-48.631-32.738-43.717-61.95c1.206-7.168-3.589-13.961-10.709-15.175c-7.12-1.214-13.869,3.612-15.075,10.78
					c-5.862,34.848,11.713,68.319,41.14,84.069c-0.281,1.317-0.436,2.681-0.436,4.083v84.618v9.987v61.192
					c0,8.325,6.704,15.074,14.975,15.074h0c8.27,0,14.974-6.749,14.974-15.074v-58.565c0-1.451,1.169-2.627,2.61-2.627
					c1.441,0,2.61,1.176,2.61,2.627v58.565c0,8.634,7.21,15.572,15.9,15.046c7.752-0.469,14.049-7.818,14.049-15.636l0-60.602
					v-9.987v-84.291c25.859-9.613,46.08-32.478,51.003-61.746C469.603,204.476,464.809,197.682,457.689,196.468z"/>
			</g>
		</g>
		<g>
			
				<ellipse style="fill:none;stroke:#FFFFFF;stroke-width:6;stroke-miterlimit:10;" cx="103.63" cy="238.092" rx="29.007" ry="29.2"/>
			<path style="fill:none;stroke:#FFFFFF;stroke-width:6;stroke-miterlimit:10;" d="M171.299,213.168
				c-1.074-6.386-7.087-10.685-13.43-9.604c-6.344,1.081-10.615,7.134-9.541,13.52c4.378,26.026-13.094,50.785-38.948,55.192
				c-25.853,4.407-50.449-13.181-54.826-39.207c-1.074-6.386-7.087-10.685-13.43-9.604c-6.344,1.081-10.615,7.134-9.541,13.52
				c4.386,26.075,22.401,46.446,45.439,55.01v75.096v8.898v53.991c0,6.965,5.61,13.512,12.517,13.93
				c7.742,0.469,14.165-5.713,14.165-13.405v-52.176c0-1.293,1.041-2.341,2.325-2.341c1.284,0,2.325,1.048,2.325,2.341v52.176
				c0,7.417,5.973,13.43,13.341,13.43h0c7.368,0,13.341-6.013,13.341-13.43v-54.517v-8.898v-75.387c0-1.249-0.139-2.464-0.389-3.637
				C160.863,274.034,176.521,244.214,171.299,213.168z"/>
		</g>
		<g>
			<ellipse cx="103.63" cy="238.092" rx="29.007" ry="29.2"/>
			<path d="M171.299,213.168c-1.074-6.386-7.087-10.685-13.43-9.604c-6.344,1.081-10.615,7.134-9.541,13.52
				c4.378,26.026-13.094,50.785-38.948,55.192c-25.853,4.407-50.449-13.181-54.826-39.207c-1.074-6.386-7.087-10.685-13.43-9.604
				c-6.344,1.081-10.615,7.134-9.541,13.52c4.386,26.075,22.401,46.446,45.439,55.01v75.096v8.898v53.991
				c0,6.965,5.61,13.512,12.517,13.93c7.742,0.469,14.165-5.713,14.165-13.405v-52.176c0-1.293,1.041-2.341,2.325-2.341
				c1.284,0,2.325,1.048,2.325,2.341v52.176c0,7.417,5.973,13.43,13.341,13.43h0c7.368,0,13.341-6.013,13.341-13.43v-54.517v-8.898
				v-75.387c0-1.249-0.139-2.464-0.389-3.637C160.863,274.034,176.521,244.214,171.299,213.168z"/>
		</g>
		<g id="mII8ee_1_">
			<g>
				<path d="M244.863,64.545c-0.117-0.175-0.233-0.382-0.381-0.564c-0.92-1.127-1.76-2.335-2.785-3.358
					c-5.281-5.27-12.898-6.049-18.967-1.919c-4.741,3.226-7.208,7.832-7.784,13.479c-0.384,3.764,0.336,7.374,1.73,10.862
					c1.839,4.598,4.678,8.539,8.065,12.103c5.78,6.082,12.652,10.692,19.96,14.704c0.121,0.066,0.347,0.045,0.476-0.025
					c5.875-3.212,11.459-6.851,16.464-11.326c3.962-3.543,7.449-7.484,9.987-12.191c2.496-4.632,3.88-9.526,3.187-14.836
					c-0.662-5.071-2.944-9.27-7.084-12.333c-3.471-2.568-7.377-3.588-11.668-2.798c-3.449,0.635-6.276,2.409-8.609,4.977
					C246.538,62.327,245.742,63.443,244.863,64.545z"/>
				<path d="M244.863,64.545c0.879-1.102,1.675-2.218,2.59-3.226c2.332-2.568,5.16-4.342,8.609-4.977
					c4.291-0.79,8.197,0.23,11.668,2.798c4.141,3.063,6.422,7.262,7.084,12.333c0.693,5.31-0.69,10.204-3.187,14.836
					c-2.537,4.708-6.025,8.648-9.987,12.191c-5.005,4.475-10.589,8.115-16.464,11.326c-0.128,0.07-0.355,0.091-0.476,0.025
					c-7.308-4.012-14.18-8.622-19.96-14.704c-3.387-3.564-6.226-7.505-8.065-12.103c-1.395-3.488-2.114-7.098-1.73-10.862
					c0.576-5.647,3.042-10.253,7.784-13.479c6.069-4.13,13.686-3.351,18.967,1.919c1.025,1.023,1.866,2.231,2.785,3.358
					C244.63,64.163,244.746,64.37,244.863,64.545z"/>
			</g>
		</g>
	</g>
</g>
</svg>
