<svg xmlns="http://www.w3.org/2000/svg" xmlns:xlink="http://www.w3.org/1999/xlink" viewBox="0,0,256,256" width="48px" height="48px" fill-rule="nonzero"><defs><linearGradient x1="13.482" y1="1.258" x2="42.789" y2="48.94" gradientUnits="userSpaceOnUse" id="color-1"><stop offset="0" stop-color="#000000"></stop><stop offset="1" stop-color="#4750b3"></stop></linearGradient></defs><g transform=""><g fill="#ffffff" fill-rule="nonzero" stroke="none" stroke-width="1" stroke-linecap="butt" stroke-linejoin="miter" stroke-miterlimit="10" stroke-dasharray="" stroke-dashoffset="0" font-family="none" font-weight="none" font-size="none" text-anchor="none" style="mix-blend-mode: normal"><path d="M0,256v-256h256v256z" id="bgRectangle"></path></g><g fill="none" fill-rule="nonzero" stroke="none" stroke-width="1" stroke-linecap="butt" stroke-linejoin="miter" stroke-miterlimit="10" stroke-dasharray="" stroke-dashoffset="0" font-family="none" font-weight="none" font-size="none" text-anchor="none" style="mix-blend-mode: normal"><g transform="scale(5.33333,5.33333)"><path d="M42,5h-36c-0.552,0 -1,0.448 -1,1v24.743c0,0.312 0.146,0.606 0.394,0.795l18,13.714c0.358,0.273 0.854,0.273 1.212,0l18,-13.714c0.248,-0.189 0.394,-0.483 0.394,-0.795v-24.743c0,-0.552 -0.448,-1 -1,-1z" fill="url(#color-1)"></path><path d="M24,34.88c-0.301,0 -0.593,-0.089 -0.847,-0.259l-12.511,-9.093c-0.487,-0.345 -0.694,-0.97 -0.509,-1.551c0.186,-0.584 0.722,-0.977 1.337,-0.977h1.869l-3.611,-6.78c-0.248,-0.476 -0.233,-1.026 0.039,-1.477c0.274,-0.452 0.767,-0.731 1.286,-0.731c0.297,0 0.586,0.09 0.837,0.26l9.923,6.596c0.573,0.377 1.047,0.909 1.368,1.538l0.819,1.651l0.813,-1.641c0.326,-0.637 0.801,-1.171 1.376,-1.55l9.928,-6.598c0.245,-0.166 0.533,-0.255 0.83,-0.255c0.52,0 1.012,0.28 1.286,0.73c0.272,0.451 0.288,1 0.043,1.471l-3.615,6.786h1.869c0.614,0 1.15,0.393 1.336,0.979c0.186,0.58 -0.023,1.207 -0.519,1.558l-12.47,9.062c-0.281,0.19 -0.571,0.281 -0.877,0.281z" fill="#000000" opacity="0.05"></path><path d="M24,34.38c-0.201,0 -0.397,-0.06 -0.568,-0.174l-12.495,-9.082c-0.312,-0.22 -0.445,-0.622 -0.326,-0.995c0.119,-0.376 0.465,-0.629 0.859,-0.629h2.702l-4.003,-7.515c-0.166,-0.318 -0.155,-0.684 0.025,-0.983c0.184,-0.302 0.512,-0.49 0.858,-0.49c0.196,0 0.389,0.06 0.557,0.174l9.927,6.598c0.502,0.331 0.917,0.797 1.199,1.349l1.265,2.549l1.262,-2.544c0.285,-0.557 0.7,-1.023 1.203,-1.355l9.929,-6.599c0.165,-0.112 0.357,-0.172 0.554,-0.172c0.347,0 0.675,0.188 0.858,0.49c0.181,0.299 0.191,0.665 0.027,0.979l-4.005,7.519h2.702c0.395,0 0.74,0.253 0.859,0.629c0.119,0.373 -0.015,0.774 -0.331,0.999l-12.475,9.066c-0.186,0.126 -0.382,0.186 -0.583,0.186z" fill="#000000" opacity="0.07"></path><path d="M37.39,15.75c0.24,-0.46 -0.29,-0.94 -0.72,-0.65l-9.93,6.6c-0.44,0.29 -0.79,0.69 -1.03,1.16l-1.35,2.72c-0.08,0.15 -0.22,0.22 -0.36,0.22c-0.14,0 -0.28,-0.07 -0.36,-0.22l-1.35,-2.72c-0.24,-0.47 -0.59,-0.87 -1.03,-1.16l-9.93,-6.6c-0.43,-0.29 -0.96,0.19 -0.72,0.65l4.08,7.66c0.14,0.27 -0.05,0.59 -0.36,0.59h-2.86c-0.39,0 -0.55,0.5 -0.24,0.72l12.48,9.07c0.09,0.06 0.19,0.09 0.29,0.09c0.1,0 0.2,-0.03 0.29,-0.09l12.48,-9.07c0.31,-0.22 0.15,-0.72 -0.24,-0.72h-2.86c-0.31,0 -0.5,-0.32 -0.36,-0.59z" fill="#ffffff"></path></g></g></g></svg>