<?xml version="1.0" encoding="utf-8"?><!-- Uploaded to: SVG Repo, www.svgrepo.com, Generator: SVG Repo Mixer Tools -->
<svg width="800px" height="800px" viewBox="0 0 24 24" fill="none" xmlns="http://www.w3.org/2000/svg">
<circle cx="12" cy="9" r="1.5" stroke="#222222" stroke-linecap="round"/>
<path d="M15.701 8.25C15.8999 7.90547 16.2275 7.65408 16.6118 7.55111C16.996 7.44815 17.4055 7.50205 17.75 7.70096C18.0945 7.89987 18.3459 8.2275 18.4489 8.61177C18.5519 8.99604 18.498 9.40547 18.299 9.75C18.1001 10.0945 17.7725 10.3459 17.3882 10.4489C17.004 10.5519 16.5945 10.498 16.25 10.299C15.9055 10.1001 15.6541 9.7725 15.5511 9.38823C15.4481 9.00396 15.502 8.59453 15.701 8.25L15.701 8.25Z" stroke="#222222"/>
<path d="M5.70096 8.25C5.89987 7.90547 6.2275 7.65408 6.61177 7.55111C6.99604 7.44815 7.40547 7.50205 7.75 7.70096C8.09453 7.89987 8.34592 8.2275 8.44889 8.61177C8.55185 8.99604 8.49795 9.40547 8.29904 9.75C8.10013 10.0945 7.7725 10.3459 7.38823 10.4489C7.00396 10.5519 6.59453 10.498 6.25 10.299C5.90547 10.1001 5.65408 9.7725 5.55111 9.38823C5.44815 9.00396 5.50205 8.59453 5.70096 8.25L5.70096 8.25Z" stroke="#222222"/>
<path d="M20.3639 15.5122L20.8501 15.3957L20.3639 15.5122ZM14.1 13.1854L13.8093 12.7786L13.2769 13.1589L13.7838 13.5727L14.1 13.1854ZM15.3804 15.5097L14.8911 15.6125L15.3804 15.5097ZM19.4999 16H14.5V17H19.4999V16ZM19.8776 15.6288C19.9012 15.7271 19.8757 15.8068 19.8169 15.8717C19.7527 15.9424 19.6412 16 19.4999 16V17C20.2996 17 21.0709 16.3171 20.8501 15.3957L19.8776 15.6288ZM16.5 13C17.726 13 18.4895 13.4087 18.9822 13.9118C19.4884 14.4286 19.7475 15.0859 19.8776 15.6288L20.8501 15.3957C20.6963 14.7541 20.3754 13.9052 19.6966 13.2121C19.0043 12.5051 17.9778 12 16.5 12V13ZM14.3906 13.5922C14.8685 13.2508 15.54 13 16.5 13V12C15.3544 12 14.4745 12.3034 13.8093 12.7786L14.3906 13.5922ZM13.7838 13.5727C14.4368 14.1059 14.7483 14.9336 14.8911 15.6125L15.8697 15.4068C15.7084 14.6398 15.3299 13.5441 14.4162 12.7981L13.7838 13.5727ZM14.8911 15.6125C14.9127 15.7155 14.8843 15.801 14.8215 15.8694C14.7542 15.9427 14.641 16 14.5 16V17C15.3038 17 16.0615 16.3194 15.8697 15.4068L14.8911 15.6125Z" fill="#222222"/>
<path d="M9.90001 13.1854L10.2162 13.5727L10.7231 13.1589L10.1907 12.7785L9.90001 13.1854ZM3.63614 15.5122L4.12237 15.6288L3.63614 15.5122ZM8.61961 15.5097L8.13031 15.4068H8.1303L8.61961 15.5097ZM7.50004 13C8.45997 13 9.13146 13.2508 9.60936 13.5922L10.1907 12.7785C9.5255 12.3033 8.64563 12 7.50004 12V13ZM4.12237 15.6288C4.25249 15.0859 4.51165 14.4286 5.01783 13.9118C5.51048 13.4087 6.27401 13 7.50004 13V12C6.02223 12 4.99575 12.5051 4.30339 13.2121C3.62456 13.9052 3.30369 14.7541 3.14991 15.3957L4.12237 15.6288ZM4.50005 16C4.3588 16 4.24729 15.9424 4.18312 15.8717C4.12432 15.8068 4.09879 15.7271 4.12237 15.6288L3.14991 15.3957C2.92906 16.3171 3.70041 17 4.50005 17V16ZM9.5 16H4.50005V17H9.5V16ZM9.5 16C9.35899 16 9.24574 15.9427 9.17843 15.8694C9.11567 15.801 9.08727 15.7155 9.10892 15.6125L8.1303 15.4068C7.93849 16.3194 8.69612 17 9.5 17V16ZM9.10892 15.6125C9.25163 14.9336 9.56317 14.1059 10.2162 13.5727L9.58379 12.7981C8.67006 13.5441 8.29153 14.6398 8.13031 15.4068L9.10892 15.6125Z" fill="#222222"/>
<path d="M12 12.5C14.3642 12.5 15.1314 14.3251 15.3804 15.5097C15.494 16.0501 15.0523 16.5 14.5 16.5H9.5C8.94772 16.5 8.50601 16.0501 8.61961 15.5097C8.86859 14.3251 9.63581 12.5 12 12.5Z" stroke="#222222" stroke-linecap="round"/>
<path d="M18.5 21.5H20C20.8284 21.5 21.5 20.8284 21.5 20V18.5" stroke="#222222" stroke-linecap="round"/>
<path d="M18.5 2.5H20C20.8284 2.5 21.5 3.17157 21.5 4V5.5" stroke="#222222" stroke-linecap="round"/>
<path d="M5.5 21.5H4C3.17157 21.5 2.5 20.8284 2.5 20V18.5" stroke="#222222" stroke-linecap="round"/>
<path d="M5.5 2.5H4C3.17157 2.5 2.5 3.17157 2.5 4V5.5" stroke="#222222" stroke-linecap="round"/>
</svg>
