<?xml version="1.0" encoding="utf-8"?><!-- Uploaded to: SVG Repo, www.svgrepo.com, Generator: SVG Repo Mixer Tools -->
<svg width="800px" height="800px" viewBox="0 0 24 24" fill="none" xmlns="http://www.w3.org/2000/svg">
<path d="M10 14L14 14" stroke="#323232" stroke-width="2" stroke-linecap="round" stroke-linejoin="round"/>
<path d="M17.5 10L17.5 10.01" stroke="#323232" stroke-width="2" stroke-linecap="round" stroke-linejoin="round"/>
<path d="M14 9.99L14 10" stroke="#323232" stroke-width="2" stroke-linecap="round" stroke-linejoin="round"/>
<path d="M17.5 13.99L17.5 14" stroke="#323232" stroke-width="2" stroke-linecap="round" stroke-linejoin="round"/>
<path d="M6.5 14L6.5 14.01" stroke="#323232" stroke-width="2" stroke-linecap="round" stroke-linejoin="round"/>
<path d="M10 10L10 10.01" stroke="#323232" stroke-width="2" stroke-linecap="round" stroke-linejoin="round"/>
<path d="M6.5 10L6.5 10.01" stroke="#323232" stroke-width="2" stroke-linecap="round" stroke-linejoin="round"/>
<path d="M17 6C18.8856 6 19.8284 6 20.4142 6.58579C21 7.17157 21 8.11438 21 10L21 12L21 14C21 15.8856 21 16.8284 20.4142 17.4142C19.8284 18 18.8856 18 17 18L16 18L8 18L7 18C5.11438 18 4.17157 18 3.58579 17.4142C3 16.8284 3 15.8856 3 14L3 12L3 10C3 8.11438 3 7.17157 3.58579 6.58579C4.17157 6 5.11438 6 7 6L8 6L16 6L17 6Z" stroke="#323232" stroke-width="2" stroke-linejoin="round"/>
</svg>