<?xml version="1.0" encoding="UTF-8" standalone="no"?>


<!-- Uploaded to: SVG Repo, www.svgrepo.com, Generator: SVG Repo Mixer Tools -->
<svg 
   xmlns:dc="http://purl.org/dc/elements/1.1/"
   xmlns:cc="http://creativecommons.org/ns#"
   xmlns:rdf="http://www.w3.org/1999/02/22-rdf-syntax-ns#"
   xmlns:svg="http://www.w3.org/2000/svg"
   xmlns="http://www.w3.org/2000/svg"
   xmlns:sodipodi="http://sodipodi.sourceforge.net/DTD/sodipodi-0.dtd"
   xmlns:inkscape="http://www.inkscape.org/namespaces/inkscape"
   width="30"
   height="30"
   viewBox="0 0 30 30"
   version="1.1"
   id="svg822"
   inkscape:version="0.92.4 (f8dce91, 2019-08-02)"
   sodipodi:docname="language.svg">
  <defs
     id="defs816" />
  <sodipodi:namedview
     id="base"
     pagecolor="#ffffff"
     bordercolor="#666666"
     borderopacity="1.0"
     inkscape:pageopacity="0.0"
     inkscape:pageshadow="2"
     inkscape:zoom="17.833333"
     inkscape:cx="15"
     inkscape:cy="15"
     inkscape:document-units="px"
     inkscape:current-layer="layer1"
     showgrid="true"
     units="px"
     inkscape:window-width="1366"
     inkscape:window-height="713"
     inkscape:window-x="0"
     inkscape:window-y="0"
     inkscape:window-maximized="1">
    <inkscape:grid
       type="xygrid"
       id="grid816" />
  </sodipodi:namedview>
  <metadata
     id="metadata819">
    <rdf:RDF>
      <cc:Work
         rdf:about="">
        <dc:format>image/svg+xml</dc:format>
        <dc:type
           rdf:resource="http://purl.org/dc/dcmitype/StillImage" />
        <dc:title />
      </cc:Work>
    </rdf:RDF>
  </metadata>
  <g
     inkscape:label="Layer 1"
     inkscape:groupmode="layer"
     id="layer1"
     transform="translate(0,-289.0625)">
    <path
       style="color:#000000;font-style:normal;font-variant:normal;font-weight:normal;font-stretch:normal;font-size:medium;line-height:normal;font-family:sans-serif;font-variant-ligatures:normal;font-variant-position:normal;font-variant-caps:normal;font-variant-numeric:normal;font-variant-alternates:normal;font-feature-settings:normal;text-indent:0;text-align:start;text-decoration:none;text-decoration-line:none;text-decoration-style:solid;text-decoration-color:#000000;letter-spacing:normal;word-spacing:normal;text-transform:none;writing-mode:lr-tb;direction:ltr;text-orientation:mixed;dominant-baseline:auto;baseline-shift:baseline;text-anchor:start;white-space:normal;shape-padding:0;clip-rule:nonzero;display:inline;overflow:visible;visibility:visible;opacity:1;isolation:auto;mix-blend-mode:normal;color-interpolation:sRGB;color-interpolation-filters:linearRGB;solid-color:#000000;solid-opacity:1;vector-effect:none;fill:#000000;fill-opacity:1;fill-rule:nonzero;stroke:none;stroke-width:2;stroke-linecap:butt;stroke-linejoin:miter;stroke-miterlimit:4;stroke-dasharray:none;stroke-dashoffset:0;stroke-opacity:1;color-rendering:auto;image-rendering:auto;shape-rendering:auto;text-rendering:auto;enable-background:accumulate"
       d="M 15 3 C 8.3844276 3 3 8.38443 3 15 C 3 21.61557 8.3844276 27 15 27 C 21.615572 27 27 21.61557 27 15 C 27 8.38443 21.615572 3 15 3 z M 15 5 C 15.180732 5 15.437682 5.095605 15.798828 5.515625 C 16.159974 5.935695 16.554657 6.6459131 16.888672 7.5644531 C 17.115929 8.1894125 17.304067 8.9365703 17.470703 9.7304688 C 16.703865 9.8785271 15.876434 9.9726562 15 9.9726562 C 14.123023 9.9726562 13.296096 9.8786981 12.529297 9.7304688 C 12.695933 8.9365703 12.884071 8.1894125 13.111328 7.5644531 C 13.445343 6.6459131 13.840026 5.935695 14.201172 5.515625 C 14.562318 5.095565 14.819268 5 15 5 z M 18.177734 5.5273438 C 19.440264 5.9517667 20.593097 6.6119807 21.574219 7.46875 C 21.366969 7.940571 20.863197 8.4539899 19.978516 8.9140625 C 19.80473 9.0044394 19.595144 9.080595 19.398438 9.1621094 C 19.219955 8.3461149 19.017233 7.5674091 18.767578 6.8808594 C 18.589626 6.3914913 18.39284 5.9423147 18.177734 5.5273438 z M 11.820312 5.5292969 C 11.605676 5.9436531 11.410049 6.3923842 11.232422 6.8808594 C 10.982991 7.5667918 10.781906 8.345 10.603516 9.1601562 C 10.407143 9.0787293 10.197012 9.0043297 10.023438 8.9140625 C 9.1387547 8.4539899 8.6349848 7.940571 8.4277344 7.46875 C 9.4080415 6.6129419 10.559365 5.9538637 11.820312 5.5292969 z M 7.015625 8.9882812 C 7.5214194 9.6734654 8.2551269 10.247316 9.1015625 10.6875 C 9.4599876 10.873898 9.8490096 11.03711 10.253906 11.185547 C 10.137722 12.08094 10.0662 13.022574 10.035156 14 L 5.0488281 14 C 5.2340606 12.125261 5.9434897 10.411484 7.015625 8.9882812 z M 22.986328 8.9902344 C 24.057534 10.413013 24.766034 12.12622 24.951172 14 L 19.964844 14 C 19.9338 13.022574 19.862278 12.08094 19.746094 11.185547 C 20.151204 11.037095 20.541919 10.873922 20.900391 10.6875 C 21.746291 10.247594 22.480555 9.6748411 22.986328 8.9902344 z M 12.210938 11.703125 C 13.091093 11.8684 14.02009 11.972656 15 11.972656 C 15.979105 11.972656 16.909116 11.870089 17.789062 11.705078 C 17.87699 12.437782 17.934937 13.202467 17.962891 14 L 12.037109 14 C 12.065087 13.201772 12.122886 12.4364 12.210938 11.703125 z M 5.0488281 16 L 10.035156 16 C 10.065402 16.952275 10.134934 17.869416 10.246094 18.744141 C 9.8442815 18.891786 9.4573931 19.053233 9.1015625 19.238281 C 8.2400662 19.686299 7.4949739 20.273273 6.9882812 20.974609 C 5.9317731 19.558613 5.2324623 17.858562 5.0488281 16 z M 12.037109 16 L 17.962891 16 C 17.935852 16.771422 17.882121 17.511531 17.798828 18.222656 C 16.916823 18.056457 15.984298 17.953243 15.001953 17.953125 L 15 17.953125 C 14.017654 17.953243 13.085547 18.056457 12.203125 18.222656 C 12.119818 17.511466 12.064151 16.771501 12.037109 16 z M 19.964844 16 L 24.951172 16 C 24.767538 17.858562 24.068227 19.558613 23.011719 20.974609 C 22.505026 20.273273 21.759933 19.686299 20.898438 19.238281 C 20.542607 19.053233 20.155565 18.891786 19.753906 18.744141 C 19.865066 17.869416 19.934598 16.952275 19.964844 16 z M 15 19.953125 C 15.882043 19.953125 16.713979 20.047437 17.484375 20.197266 C 17.314908 21.019302 17.122694 21.791984 16.888672 22.435547 C 16.554657 23.354087 16.159974 24.064305 15.798828 24.484375 C 15.437682 24.904435 15.180732 25 15 25 C 14.819268 25 14.562318 24.904395 14.201172 24.484375 C 13.840026 24.064305 13.445343 23.354087 13.111328 22.435547 C 12.877306 21.791984 12.685092 21.019302 12.515625 20.197266 C 13.28606 20.047611 14.118507 19.953125 15 19.953125 z M 10.589844 20.769531 C 10.77107 21.610927 10.975985 22.413943 11.232422 23.119141 C 11.410049 23.607616 11.605676 24.056347 11.820312 24.470703 C 10.547922 24.0423 9.3864034 23.374862 8.4003906 22.507812 C 8.5948402 22.022275 9.1057924 21.487923 10.021484 21.011719 C 10.191668 20.923215 10.397657 20.84955 10.589844 20.769531 z M 19.410156 20.771484 C 19.601393 20.851209 19.807085 20.923582 19.976562 21.011719 C 20.893482 21.488559 21.403801 22.02371 21.597656 22.509766 C 20.611788 23.376206 19.451682 24.042657 18.179688 24.470703 C 18.394324 24.056347 18.589951 23.607616 18.767578 23.119141 C 19.023827 22.414458 19.229004 21.612176 19.410156 20.771484 z "
       transform="translate(0,289.0625)"
       id="path854" />
  </g>
</svg>