<svg xmlns="http://www.w3.org/2000/svg"  viewBox="0 0 48 48" width="48px" height="48px" baseProfile="basic"><linearGradient id="8_z2FLLm4qbI1VgQy_edPa" x1="23.983" x2="49.987" y1="13.771" y2="55.385" gradientUnits="userSpaceOnUse"><stop offset="0" stop-color="#fafafb"/><stop offset=".523" stop-color="#e2e4e7"/><stop offset="1" stop-color="#c8cdd1"/></linearGradient><circle cx="31" cy="25" r="11" fill="url(#8_z2FLLm4qbI1VgQy_edPa)"/><linearGradient id="8_z2FLLm4qbI1VgQy_edPb" x1="23.35" x2="38.376" y1="12.757" y2="36.803" gradientUnits="userSpaceOnUse"><stop offset="0" stop-color="#c3cdd9"/><stop offset="1" stop-color="#9fa7b0"/></linearGradient><polygon fill="url(#8_z2FLLm4qbI1VgQy_edPb)" points="34.5,31 27.5,31 24,25 27.5,19 34.5,19 38,25"/><linearGradient id="8_z2FLLm4qbI1VgQy_edPc" x1="15.171" x2="47.447" y1="5.396" y2="57.049" gradientUnits="userSpaceOnUse"><stop offset="0" stop-color="#4f5d7f"/><stop offset="1" stop-color="#344363"/></linearGradient><path fill="url(#8_z2FLLm4qbI1VgQy_edPc)" d="M31,8H13.5c-0.69,0-1.32,0.28-1.77,0.73C11.28,9.18,11,9.81,11,10.5c0,1.38,1.12,2.5,2.5,2.5	H18c0.28,0,0.55,0.06,0.8,0.17C19.5,13.48,20,14.18,20,15c0,0.55-0.22,1.05-0.59,1.41C19.05,16.78,18.55,17,18,17H7.5	C6.67,17,6,17.67,6,18.5S6.67,20,7.5,20H15c1.1,0,2,0.9,2,2c0,0.55-0.22,1.05-0.59,1.41C16.05,23.78,15.55,24,15,24h-4.5	C9.67,24,9,24.67,9,25.5S9.67,27,10.5,27h3.63c0.99,8.45,8.16,15,16.87,15c9.39,0,17-7.61,17-17S40.39,8,31,8z M31,34.5	c-5.244,0-9.5-4.256-9.5-9.5s4.256-9.5,9.5-9.5s9.5,4.256,9.5,9.5S36.244,34.5,31,34.5z M2.5,20h-1C0.672,20,0,19.328,0,18.5v0	C0,17.672,0.672,17,1.5,17h1C3.328,17,4,17.672,4,18.5v0C4,19.328,3.328,20,2.5,20z"/></svg>
