<?xml version="1.0" encoding="iso-8859-1"?>
<!-- Uploaded to: SVG Repo, www.svgrepo.com, Generator: SVG Repo Mixer Tools -->
<svg fill="#000000" height="800px" width="800px" version="1.1" id="Layer_1" xmlns="http://www.w3.org/2000/svg" xmlns:xlink="http://www.w3.org/1999/xlink" 
	 viewBox="0 0 510.763 510.763" xml:space="preserve">
<g>
	<g>
		<path d="M437.333,212.715c5.888,0,10.667-4.779,10.667-10.667v-128c0-29.397-23.936-53.333-53.333-53.333H53.333
			C23.936,20.715,0,44.651,0,74.048v362.667c0,29.397,23.936,53.333,53.333,53.333h341.333c29.397,0,53.333-23.936,53.333-53.333
			v-64c0-5.888-4.779-10.667-10.667-10.667s-10.667,4.779-10.667,10.667v64c0,17.643-14.357,32-32,32H53.333
			c-17.643,0-32-14.357-32-32V127.381h405.333v74.667C426.667,207.936,431.445,212.715,437.333,212.715z M21.333,106.048v-32
			c0-17.643,14.357-32,32-32h341.333c17.643,0,32,14.357,32,32v32H21.333z"/>
	</g>
</g>
<g>
	<g>
		<circle cx="53.333" cy="74.048" r="10.667"/>
	</g>
</g>
<g>
	<g>
		<circle cx="96" cy="74.048" r="10.667"/>
	</g>
</g>
<g>
	<g>
		<circle cx="138.667" cy="74.048" r="10.667"/>
	</g>
</g>
<g>
	<g>
		<path d="M510.763,325.141c-2.027-4.352-20.352-53.909-31.424-84.117c-1.515-4.181-5.504-6.976-9.963-6.997
			c-0.021,0-0.043,0-0.043,0c-4.437,0-8.427,2.752-9.984,6.912l-32,85.333c-2.069,5.525,0.725,11.669,6.229,13.739
			c5.483,2.069,11.669-0.704,13.739-6.229l5.397-14.4h33.173c7.36,18.133,10.304,21.568,14.251,21.568
			c0.917,0,1.92-0.171,3.051-0.405l-1.963-10.965L510.763,325.141z M460.715,298.048l8.491-22.677
			c3.221,8.768,5.931,16.064,8.427,22.677H460.715z"/>
	</g>
</g>
<g>
	<g>
		<path d="M340.096,325.141c-2.005-4.352-20.331-53.909-31.403-84.117c-1.515-4.181-5.504-6.976-9.963-6.997
			c-0.021,0-0.043,0-0.043,0c-4.437,0-8.427,2.752-9.984,6.912l-32,85.333c-2.069,5.525,0.725,11.669,6.229,13.739
			c5.483,2.069,11.669-0.704,13.739-6.229l5.376-14.4h33.173c7.36,18.133,10.304,21.568,14.251,21.568
			c0.917,0,1.92-0.171,3.051-0.405l-1.963-10.965L340.096,325.141z M290.048,298.048l8.491-22.677
			c3.221,8.768,5.931,16.064,8.427,22.677H290.048z"/>
	</g>
</g>
<g>
	<g>
		<path d="M419.755,234.731c-5.547-2.048-11.669,0.704-13.76,6.229l-22.016,58.709l-22.016-58.709
			c-2.069-5.504-8.235-8.256-13.739-6.229c-5.504,2.069-8.299,8.213-6.229,13.739l32,85.333c1.557,4.16,5.547,6.912,10.005,6.912
			c4.459,0,8.427-2.752,9.984-6.912l32-85.333C428.053,242.944,425.259,236.8,419.755,234.731z"/>
	</g>
</g>
<g>
	<g>
		<path d="M224,234.048c-5.888,0-10.667,4.779-10.667,10.667v64c0,5.888-4.779,10.667-10.667,10.667S192,314.603,192,308.715
			s-4.779-10.667-10.667-10.667s-10.667,4.779-10.667,10.667c0,17.643,14.357,32,32,32s32-14.357,32-32v-64
			C234.667,238.827,229.888,234.048,224,234.048z"/>
	</g>
</g>
</svg>