<?xml version="1.0" encoding="utf-8"?>
<!-- Svg Vector Icons : http://www.onlinewebfonts.com/icon -->
<!DOCTYPE svg PUBLIC "-//W3C//DTD SVG 1.1//EN" "http://www.w3.org/Graphics/SVG/1.1/DTD/svg11.dtd">
<svg version="1.1" xmlns="http://www.w3.org/2000/svg" xmlns:xlink="http://www.w3.org/1999/xlink" x="0px" y="0px" viewBox="0 0 1000 1000" enable-background="new 0 0 1000 1000" xml:space="preserve">
<metadata> Svg Vector Icons : http://www.onlinewebfonts.com/icon </metadata>
<g><path d="M668.9,407.9l-1.1,0.8c-0.2,0.2-5.5,4.1-8.3,6.3l-12.6,10.1l16,2.5c1,0.2,2.5,0.3,4.7,0.5c27.4,2.4,43.7,7.2,48.2,14.3c7.9,12.3,7.4,26.1-1.5,37.7c-10.1,13.2-23,24.6-37.7,37c-6.2,5.3-13.6,9.7-21.4,14.5c-3.8,2.3-7.8,4.7-11.8,7.4l-22.7,14.7l27-1.7c35.5-2.2,84.5-28.6,105-56.5c12.6-17.2,16.1-38.2,9.2-56.3c-6.5-17.3-21.4-29.6-40.8-33.9l-0.7-0.1c-6.1-0.7-12.3-1.1-18.6-1.1c-18.5,0-31.2,3.3-31.7,3.4L668.9,407.9z"/><path d="M472.7,398.9c6.3,5.9,12.8,12.1,18.9,18.3l4.4,4.5l5.8-4.5c0.9-0.7,1.8-1.4,2.8-2.2l5.2-4l-3.6-5.5c-3.9-5.8-7.7-11.6-11.6-17.4c-8.5-12.8-17.3-26-25.8-39.1c-23.9-37-21.5-67.6,7.9-99.3c9.9-10.7,21.5-20.5,32.7-30c4-3.4,8.1-6.9,12.1-10.4c31.6-27.6,62.2-59.4,72.7-104.5c7-30.2,1-55.6-17.9-75.7l-17.9-19l5.7,25.4c9,39.7-2.1,74.3-33.8,105.6c-6.4,6.3-13.4,12.3-20.3,18.1c-5,4.2-10.1,8.5-15,13c-6.8,6.3-13.9,12.6-20.7,18.7c-20,18-40.7,36.6-59.7,56.3c-15.8,16.3-18.8,38.8-8.9,64.9C419.7,348.7,446.7,374.2,472.7,398.9z"/><path d="M390.6,484.3l0.5,0c0.8,0,1.5,0,2.3,0.1l-7,3.5c-9,4.5-28,20.2-26.2,37.5c1.3,12.5,12.6,21.5,33.5,26.9c18.7,4.8,41.9,7.2,68.9,7.2c0,0,0,0,0,0c76.4,0,161-19.4,161.8-19.6l5.5-1.3V533c0-2.5,0-4.6-18.1-27.9l-2.8-3.6l-4.5,1.1c-0.7,0.2-69.1,16.4-164.2,16.4c-7,0-14-0.1-20.9-0.3c-12.6-0.3-21.1-3.2-24.1-8c-3.2-5.4,0.5-13.2,0.5-13.2l6.7-13c1.3,0,2.5,0,3.8,0c115.6,0,240-35.1,241.3-35.4l-2.5-13.9c-1,0.1-53.5,4.2-107.4,8.2c4.5-4.6,9-8.9,13.4-13c10-9.5,19.4-18.5,26.9-29c14.9-21.1,14.5-44.2-1-65.2c-5.7-7.7-11.3-16.1-18.4-27.3c-13.6-21.6-13-34.4,2.5-52.5c9.7-11.4,21.7-22.4,36.9-33.8c12.7-9.6,26.3-18.4,40.7-27.8c6.5-4.3,13.3-8.7,20.3-13.3l24.5-16.4l-29.3,3.4c-2,0.2-3.6,0.3-5,0.4c-2.7,0.2-5.1,0.3-7.5,1.4c-8.3,3.7-16.8,7.4-25.1,11c-21.6,9.4-44,19-65,30.8c-15.7,8.9-31,23.2-42.9,40.3c-23.6,33.8-19.6,70.5,12.3,112.1c21.8,28.5,22.1,33.1,4,62.7c-1.6,2.6-1.2,4.9-0.9,7.3c0.2,1.2,0.4,2.8,0.7,5.3l0.5,4.5c-48.1,3.5-94.2,6.8-102.9,6.8l-0.4,0c-32.6-0.8-42.4-4.4-45.2-6.1c1.5-1.8,6.1-6.1,19.6-12.5c10.2-4.9,20-8.4,20.4-8.6l5.2-1.9l-1.1-11.9h-6.5c-2.2,0-26.8,6.4-46.7,13.2c-42.9,14.7-49.1,24.9-49.5,33C317.5,470.9,338.5,479.1,390.6,484.3z"/><path d="M441.4,714.7c-63.7,0-96.5-8.6-96.8-8.7l-3.2-0.9c9.8,0.3,20.3,0.5,31.5,0.5c0,0,0,0,0,0c64.6,0,152.9-5.7,262.4-17l0.2,0c61.2-8.3,88.1-28.8,92.7-45.1c2.1-7.2,0.1-13.9-5.4-18.4l-11.3-9.4l-0.4,14.3c-2.2,3.9-20.6,13.7-75.9,24.3c-38.1,7.3-84.2,13.1-112,14.1c-10.1,0.4-20.8,0.5-31.8,0.5c-37.8,0-76.3-2.1-113.6-4.2c-8.8-0.5-17.7-1-26.5-1.4l-0.1,0c-31.2-1.1-34.3-7.1-34.3-7.1c-0.1-0.8,1.5-5.1,11.4-12.3c8-5.8,17.8-10.8,23.9-13.2l24.6-9.5l-26.1-4.2c-4.4-0.7-9.7-1.1-15.5-1.1c-25.6,0-73.3,7.6-92.7,28.1c-5.8,6.1-8.5,12.9-8.1,20.1c0,0.2,0,0.7,0,1c-0.1,3.5-0.3,10.7,6.5,17.8c10.9,11.2,37.3,18.2,80.3,21l16.8,14.2c1.5,1.3,38.7,31.8,125.6,31.8c27.1,0,56.5-3,87.4-9c52.9-10.2,151.5-38.7,208.5-63.4l-4.8-13.4C610.8,706,504.9,714.7,441.4,714.7z"/><path d="M545.5,582.5c-22.3,4.7-43.5,7.1-62.9,7.1c-49.6,0-74.9-15.4-81.5-20.1l-4.6-3.3L364,594.4l5.9,5.4c1.4,1.3,36.1,32.3,117.7,32.3c38,0,80.4-6.8,125.8-20.2l25.5-7.5l-91.8-22.2L545.5,582.5z"/><path d="M696,847c2-25.1-5.1-33.5-30.8-32.4c-13,0.6-25.8,3.8-40,6c-1.3-5.4-2.7-11.4-4.3-18c25.1-9.1,49.4-15.4,75.3-9.2c18.1,4.3,29.9,15.5,30.5,33.9c1.2,36.3,0.3,72.7,0.3,110.4c-10-1.8-23.7,8.4-25.9-8.9c-15.2,3.9-30.4,10.2-46.1,11.4c-22.1,1.8-36.2-10-40.3-28.8c-4.7-21.3,3.9-43,23.3-50.1C656.1,854.6,675.6,851.8,696,847z M696.6,869.8c-13.9,2-25.9,2.8-37.5,5.7c-11.6,2.9-17.7,15.8-14.3,27c3.6,11.9,14,17.4,26.7,14.4c21.2-5.2,25.2-10.3,25-32.6C696.6,880.7,696.6,877.1,696.6,869.8z M458.8,937.5c-7.5,0-14.3,0-21.8,0c-1.3-3.5-2.6-7.2-4.2-11.3c-1.5,0.2-3-0.1-3.8,0.5c-12.9,9.5-26.9,14.9-43.2,14.1c-20.5-1-33.4-9.7-38.5-26.7c-5.7-19.4,0.5-41.1,18-49.9c13.4-6.8,29.1-9.2,44-12.9c6-1.5,12.5-1.1,18.7-1.5c3.3-26.4-4.7-35.9-29.6-35.4c-6.8,0.1-13.6,1.2-20.3,2.4c-6.6,1.2-13,3.1-19.5,4.7c-7.1-18.5-7.5-20.3,10.1-24c17.9-3.8,36.8-6,54.9-4.7c22.5,1.6,33.5,12.6,34.9,34.9c2.1,32.7,1.1,65.6,1.4,98.5C459.9,929.9,459.2,933.4,458.8,937.5z M428,870.1c-12.7,1.8-25,2.5-36.6,5.4c-11.8,2.9-17.2,15-13.9,27.1c2.9,11,12.4,17.5,24,14.7C430.3,910.1,432.2,905.3,428,870.1z M476.2,795.3c1.7-0.9,2.1-1.3,2.5-1.3c31.2-1,30.9-0.9,39.5,29.1c7.5,25.9,15.7,51.7,23.6,77.5c1.2,0.2,2.5,0.4,3.7,0.6c8.7-35.4,17.4-70.8,26.3-106.8c8.7,0,18.5,0,31.5,0c-7.4,28-13.7,54.7-21.6,81c-5.2,17.4-13,34-18.8,51.2c-3.2,9.6-8.9,13.1-18.4,11.6c-1.3-0.2-2.8-0.3-4.1,0c-15.4,3.2-22.4-3.5-26.6-18.5C502.3,878.2,489,837.1,476.2,795.3z M277.4,990c-4.9-6-9.5-11.6-15.3-18.6c29.3-13.7,31.7-39.2,31.3-66.8c-0.7-48.4-0.2-96.7-0.1-145.1c0-5,0-9.9,0-16.1c11.2,0,21.3,0,32.3,0c0.2,3.6,0.6,7.1,0.6,10.6c0,53.8,0.2,107.7-0.2,161.5C325.7,955,314.8,971.5,277.4,990z"/></g>
</svg>