<svg xmlns="http://www.w3.org/2000/svg" width="24" height="24" fill="none" id="level-3-discord-boost"><path fill="#000" fill-rule="evenodd" d="M11.68 1.616a.5.5 0 0 1 .64 0l6 5A.5.5 0 0 1 18.5 7v10a.5.5 0 0 1-.18.384l-6 5a.5.5 0 0 1-.64 0l-6-5A.5.5 0 0 1 5.5 17V7a.5.5 0 0 1 .18-.384l6-5ZM6.5 7.234v9.532l5.5 4.583 5.5-4.583V7.234L12 2.651 6.5 7.234Z" clip-rule="evenodd"></path><path fill="#000" fill-rule="evenodd" d="M11.662 5.631a.5.5 0 0 1 .676 0l3 2.75a.5.5 0 0 1 .162.369v6.5a.5.5 0 0 1-.162.369l-3 2.75a.5.5 0 0 1-.676 0l-3-2.75a.5.5 0 0 1-.162-.369v-6.5a.5.5 0 0 1 .162-.369l3-2.75ZM9.5 8.97v6.06l2.5 2.292 2.5-2.292V8.97L12 6.678 9.5 8.97Z" clip-rule="evenodd"></path><path fill="#000" fill-rule="evenodd" d="M12.5 2.5V6h-1V2.5h1zM6.224 6.553l3 1.5-.448.894-3-1.5.448-.894zm12 .894-3 1.5-.448-.894 3-1.5.448.894zM5.776 16.553l3-1.5.448.894-3 1.5-.448-.894zm12 .894-3-1.5.448-.894 3 1.5-.448.894zM11.5 21.5V18h1v3.5h-1zm-2.854-9.854 4.5-4.5.708.708-4.5 4.5-.708-.707z" clip-rule="evenodd"></path><path fill="#000" fill-rule="evenodd" d="m8.646 15.146 6-6 .708.708-6 6-.708-.707zM19.5 6V2h1v4h-1zm-16 16v-4h1v4h-1z" clip-rule="evenodd"></path><path fill="#000" fill-rule="evenodd" d="M22 4.5h-4v-1h4v1zm-16 16H2v-1h4v1z" clip-rule="evenodd"></path></svg>