<?xml version="1.0" encoding="utf-8"?>
<!-- Svg Vector Icons : http://www.onlinewebfonts.com/icon -->
<!DOCTYPE svg PUBLIC "-//W3C//DTD SVG 1.1//EN" "http://www.w3.org/Graphics/SVG/1.1/DTD/svg11.dtd">
<svg version="1.1" xmlns="http://www.w3.org/2000/svg" xmlns:xlink="http://www.w3.org/1999/xlink" x="0px" y="0px" viewBox="0 0 1000 1000" enable-background="new 0 0 1000 1000" xml:space="preserve">
<metadata> Svg Vector Icons : http://www.onlinewebfonts.com/icon </metadata>
<g><path d="M10,522.5c0-15,0-30,0-45c0.4-2.6,0.9-5.2,1-7.8c2.2-39.6,9.2-78.4,21.1-116.2c27.7-87.8,75.9-162.4,145.1-223.2c72-63.2,155.6-101.9,250.3-116.4c11.6-1.8,23.2-3,34.8-4.5c24.7,0,49.4,0,74.2,0c1.6,0.3,3.1,0.9,4.7,1c39.2,3,77.4,10.8,114.5,23.6C771.7,74,861,147,923.4,252.7c33.1,56.1,53.7,116.7,62,181.4c1.9,14.4,3.1,28.9,4.6,43.4c0,15,0,30,0,45c-0.4,2.6-0.9,5.1-1.1,7.7c-2.3,39.4-9.2,78-21.1,115.6c-28.2,89-77.3,164.5-148.1,225.5C744.3,936.4,657,974.9,558.1,987c-11.6,1.4-23.3,2.4-35,3.6c-15.4,0-30.8,0-46.2,0c-2-0.3-3.9-0.8-5.9-1c-17.9-2.1-36-3.2-53.7-6.3c-122.2-21.6-222.3-81.1-300-177.6C58.7,733,24.5,649.6,13.5,556.8C12.1,545.4,11.2,533.9,10,522.5z M928.7,499.6C929,263,737.1,70.5,500.4,70c-236.4-0.4-429,192.3-429,429.4C71.3,736.4,262.6,928.3,499.6,929C735.8,929.8,928.3,737.1,928.7,499.6z"/><path d="M769.4,497.4c0,12.4,0,24.4,0,36.8c-128.2,0-256.1,0-384.3,0c0-12.3,0-24.4,0-36.8C513.3,497.4,641.2,497.4,769.4,497.4z"/><path d="M385.1,383.9c0-12.4,0-24.2,0-36.7c128,0,256.1,0,384.4,0c0,12.3,0,24.3,0,36.7C641.3,383.9,513.5,383.9,385.1,383.9z"/><path d="M769.5,647.8c0,12.6,0,24.5,0,36.7c-128.2,0-256.1,0-384.4,0c0-12.3,0-24.3,0-36.7C513.3,647.8,641.1,647.8,769.5,647.8z"/><path d="M245.2,534.2c0-24.9,0-49.5,0-74.5c23.3,0,46.2,0,69.5,0c0,24.9,0,49.5,0,74.5C291.4,534.2,268.4,534.2,245.2,534.2z"/><path d="M245.2,309.4c23.4,0,46.4,0,69.5,0c0,25,0,49.5,0,74.4c-23.2,0-46.2,0-69.5,0C245.2,359,245.2,334.4,245.2,309.4z"/><path d="M245.3,610.1c23.1,0,45.9,0,69.2,0c0,24.7,0,49.3,0,74.5c-22.8,0-45.8,0-69.2,0C245.3,660,245.3,635.4,245.3,610.1z"/></g>
</svg>