<?xml version="1.0" encoding="iso-8859-1"?>
<!-- Uploaded to: SVG Repo, www.svgrepo.com, Generator: SVG Repo Mixer Tools -->
<svg height="800px" width="800px" version="1.1" id="Capa_1" xmlns="http://www.w3.org/2000/svg" xmlns:xlink="http://www.w3.org/1999/xlink" 
	 viewBox="0 0 502.664 502.664" xml:space="preserve">
<g>
	<g>
		<g>
			<path style="fill:#010002;" d="M251.364,288.229c52.266,0,94.631-42.365,94.631-94.631s-42.365-94.631-94.631-94.631
				s-94.631,42.365-94.631,94.631S199.12,288.229,251.364,288.229z M281.714,121.379c14.819,0,26.812,12.015,26.812,26.812
				s-12.015,26.791-26.812,26.791s-26.812-11.972-26.812-26.791C254.902,133.372,266.895,121.379,281.714,121.379z"/>
			<path style="fill:#010002;" d="M309.174,315.839H205.419c-36.519,0-66.416,29.876-66.416,66.438v120.387h236.653V382.277
				C375.634,345.736,345.715,315.839,309.174,315.839z"/>
			<path style="fill:#010002;" d="M143.187,110.184l-41.934-41.977l17.817-17.839l41.977,41.955L143.187,110.184z M393.602,180.655
				v25.238h59.32v-25.238H393.602z M49.742,205.893h59.341v-25.238H49.742V205.893z M401.475,68.207l-17.861-17.839l-41.998,41.955
				l17.861,17.861L401.475,68.207z M267.025,0h-27.33v55.825h27.33V0z"/>
		</g>
	</g>
	<g>
	</g>
	<g>
	</g>
	<g>
	</g>
	<g>
	</g>
	<g>
	</g>
	<g>
	</g>
	<g>
	</g>
	<g>
	</g>
	<g>
	</g>
	<g>
	</g>
	<g>
	</g>
	<g>
	</g>
	<g>
	</g>
	<g>
	</g>
	<g>
	</g>
</g>
</svg>